<svg xmlns="http://www.w3.org/2000/svg" width="32" height="32" viewBox="0 0 32 32">
  <defs>
    <linearGradient id="g" x1="0.2" y1="1" x2="0.8" y2="0">
      <stop offset="0%" stop-color="#6cb4ee"/>
      <stop offset="45%" stop-color="#c9a84c"/>
      <stop offset="100%" stop-color="#e8913a"/>
    </linearGradient>
  </defs>
  <path fill="url(#g)" d="
    M16 6
    C15.2 8 15 9.5 15.5 11
    C16 12 16 12 16.5 11
    C17 9.5 16.8 8 16 6Z

    M16 11
    C13 12 9 11 6 8
    C3.5 5.5 2.5 3.5 2.5 2
    C2 6.5 3.5 11.5 7 14.5
    C10.5 17 13.5 17 16 16Z

    M16 11
    C19 12 23 11 26 8
    C28.5 5.5 29.5 3.5 29.5 2
    C30 6.5 28.5 11.5 25 14.5
    C21.5 17 18.5 17 16 16Z

    M16 16
    C15.5 18 14.5 20 13 22
    C12 23.5 11 24.5 10 25
    C11.5 24 13 22.5 14.5 21
    C15.5 19.5 16 18 16 16Z

    M16 16
    C17 19 17.5 23 14 26
    C10 29 6 30 3 29
    C6 29 10 27 13.5 24
    C16 21.5 16 18.5 16 16Z
  "/>
</svg>
